<?xml version="1.0" standalone="no"?>
<!DOCTYPE svg PUBLIC "-//W3C//DTD SVG 20010904//EN"
 "http://www.w3.org/TR/2001/REC-SVG-20010904/DTD/svg10.dtd">
<svg version="1.0" xmlns="http://www.w3.org/2000/svg"
 width="500.000000pt" height="500.000000pt" viewBox="0 0 500.000000 500.000000"
 preserveAspectRatio="xMidYMid meet">

<g transform="translate(0.000000,500.000000) scale(0.100000,-0.100000)"
fill="#000000" stroke="none">
<path d="M1389 3506 c-123 -44 -189 -136 -189 -265 1 -158 117 -271 278 -271
73 0 144 33 195 90 54 59 70 102 71 185 0 61 -4 78 -30 125 -68 120 -207 179
-325 136z m89 -52 c13 -9 31 -32 39 -52 31 -74 -25 -155 -107 -155 -53 0 -91
28 -109 80 -13 36 -12 43 5 79 33 69 108 90 172 48z"/>
<path d="M3474 3489 c-110 -32 -194 -146 -194 -263 0 -123 85 -235 203 -267
56 -15 144 -6 194 19 58 30 117 101 138 168 54 172 -84 357 -264 353 -25 0
-60 -5 -77 -10z m97 -65 c73 -70 25 -196 -75 -196 -71 0 -115 43 -116 113 0
50 25 93 64 110 36 15 96 3 127 -27z"/>
<path d="M2413 3158 c-13 -6 -23 -15 -23 -19 0 -9 84 -79 95 -79 4 0 28 17 53
37 l45 37 -23 18 c-25 20 -110 24 -147 6z"/>
<path d="M2326 2819 c-83 -44 -176 -89 -208 -100 -105 -35 -243 -19 -287 34
-18 22 -43 22 -39 0 2 -10 26 -31 54 -48 49 -29 52 -33 69 -100 114 -443 291
-867 427 -1020 119 -133 227 -128 347 17 64 78 182 314 246 492 45 126 141
441 164 542 10 41 21 59 52 83 38 31 49 51 29 51 -5 0 -30 -15 -56 -32 -44
-32 -49 -33 -142 -32 -114 0 -142 10 -350 122 -73 40 -139 72 -145 72 -7 0
-79 -37 -161 -81z m304 -229 c138 -33 230 -85 316 -179 48 -51 49 -28 -11
-211 -82 -251 -246 -583 -278 -563 -6 3 -7 1 -3 -6 10 -16 -71 -88 -112 -100
-20 -6 -45 -6 -66 0 -41 11 -143 111 -172 166 -10 21 -21 40 -24 43 -25 25
-91 170 -84 182 4 6 3 8 -3 5 -13 -8 -65 126 -57 149 5 15 4 16 -4 5 -8 -11
-14 -3 -26 35 -9 27 -32 94 -51 149 -35 102 -43 145 -25 145 6 0 10 5 10 11 0
6 25 35 56 65 59 57 154 109 227 124 64 14 201 5 307 -20z"/>
<path d="M2060 2281 c0 -6 4 -13 10 -16 6 -3 7 1 4 9 -7 18 -14 21 -14 7z"/>
<path d="M953 2550 c-74 -24 -135 -68 -185 -135 -50 -66 -72 -134 -73 -220 -1
-336 401 -511 636 -276 61 62 84 100 105 176 78 283 -202 547 -483 455z"/>
<path d="M3865 2556 c-121 -39 -204 -109 -253 -214 -23 -49 -27 -70 -27 -152
0 -82 4 -103 27 -152 73 -157 240 -249 401 -221 166 28 279 135 314 297 15 71
15 81 0 153 -20 93 -65 165 -138 222 -87 70 -226 98 -324 67z"/>
</g>
</svg>
